<svg width="895" height="895" viewBox="0 0 895 895" fill="none" xmlns="http://www.w3.org/2000/svg">
<circle cx="447.5" cy="447.5" r="447.5" fill="#D92C15"/>
<mask id="path-2-inside-1" fill="white">
<path d="M230 543C230 523.17 235.626 503.535 246.556 485.215C257.487 466.895 273.508 450.249 293.704 436.227C313.901 422.205 337.878 411.083 364.266 403.494C390.655 395.906 418.938 392 447.5 392C476.063 392 504.345 395.906 530.734 403.494C557.122 411.083 581.099 422.205 601.296 436.227C621.492 450.249 637.513 466.895 648.444 485.215C659.374 503.535 665 523.17 665 543L447.5 543L230 543Z"/>
</mask>
<path d="M230 543C230 523.17 235.626 503.535 246.556 485.215C257.487 466.895 273.508 450.249 293.704 436.227C313.901 422.205 337.878 411.083 364.266 403.494C390.655 395.906 418.938 392 447.5 392C476.063 392 504.345 395.906 530.734 403.494C557.122 411.083 581.099 422.205 601.296 436.227C621.492 450.249 637.513 466.895 648.444 485.215C659.374 503.535 665 523.17 665 543L447.5 543L230 543Z" stroke="white" stroke-width="20" mask="url(#path-2-inside-1)"/>
<line x1="494.381" y1="213.287" x2="739.171" y2="269.216" stroke="white" stroke-width="20"/>
<line x1="157.448" y1="272.482" x2="400.685" y2="210.144" stroke="white" stroke-width="20"/>
<circle cx="309" cy="255" r="22" stroke="white" stroke-width="10"/>
<circle cx="588" cy="255" r="22" stroke="white" stroke-width="10"/>
</svg>
