<svg width="895" height="895" viewBox="0 0 895 895" fill="none" xmlns="http://www.w3.org/2000/svg">
<circle cx="447.5" cy="447.5" r="447.5" fill="#00FF19"/>
<mask id="path-2-inside-1" fill="white">
<path d="M740 398C740 436.346 732.447 474.316 717.773 509.744C703.098 545.171 681.59 577.36 654.475 604.475C627.36 631.59 595.171 653.098 559.744 667.773C524.316 682.447 486.346 690 448 690C409.654 690 371.683 682.447 336.256 667.773C300.829 653.098 268.64 631.59 241.525 604.475C214.41 577.36 192.902 545.171 178.227 509.744C163.553 474.316 156 436.346 156 398L448 398H740Z"/>
</mask>
<path d="M740 398C740 436.346 732.447 474.316 717.773 509.744C703.098 545.171 681.59 577.36 654.475 604.475C627.36 631.59 595.171 653.098 559.744 667.773C524.316 682.447 486.346 690 448 690C409.654 690 371.683 682.447 336.256 667.773C300.829 653.098 268.64 631.59 241.525 604.475C214.41 577.36 192.902 545.171 178.227 509.744C163.553 474.316 156 436.346 156 398L448 398H740Z" stroke="white" stroke-width="30" mask="url(#path-2-inside-1)"/>
<mask id="path-3-inside-2" fill="white">
<path d="M156 317C156 297.827 159.117 278.842 165.173 261.128C171.228 243.415 180.104 227.32 191.294 213.762C202.483 200.205 215.767 189.451 230.387 182.114C245.006 174.776 260.676 171 276.5 171C292.324 171 307.994 174.776 322.613 182.114C337.233 189.451 350.517 200.205 361.706 213.762C372.896 227.32 381.772 243.415 387.828 261.128C393.883 278.842 397 297.827 397 317L383.015 317C383.015 300.052 380.26 283.27 374.907 267.613C369.554 251.955 361.708 237.728 351.818 225.744C341.927 213.76 330.185 204.254 317.262 197.768C304.339 191.283 290.488 187.944 276.5 187.944C262.512 187.944 248.661 191.283 235.738 197.768C222.815 204.254 211.073 213.76 201.182 225.744C191.292 237.728 183.446 251.955 178.093 267.613C172.74 283.27 169.985 300.052 169.985 317L156 317Z"/>
</mask>
<path d="M156 317C156 297.827 159.117 278.842 165.173 261.128C171.228 243.415 180.104 227.32 191.294 213.762C202.483 200.205 215.767 189.451 230.387 182.114C245.006 174.776 260.676 171 276.5 171C292.324 171 307.994 174.776 322.613 182.114C337.233 189.451 350.517 200.205 361.706 213.762C372.896 227.32 381.772 243.415 387.828 261.128C393.883 278.842 397 297.827 397 317L383.015 317C383.015 300.052 380.26 283.27 374.907 267.613C369.554 251.955 361.708 237.728 351.818 225.744C341.927 213.76 330.185 204.254 317.262 197.768C304.339 191.283 290.488 187.944 276.5 187.944C262.512 187.944 248.661 191.283 235.738 197.768C222.815 204.254 211.073 213.76 201.182 225.744C191.292 237.728 183.446 251.955 178.093 267.613C172.74 283.27 169.985 300.052 169.985 317L156 317Z" stroke="white" stroke-width="20" mask="url(#path-3-inside-2)"/>
<mask id="path-4-inside-3" fill="white">
<path d="M493 317C493 297.827 496.194 278.842 502.401 261.128C508.607 243.415 517.704 227.32 529.172 213.762C540.64 200.205 554.255 189.451 569.239 182.114C584.222 174.776 600.282 171 616.5 171C632.718 171 648.778 174.776 663.761 182.114C678.745 189.451 692.36 200.205 703.828 213.762C715.296 227.32 724.393 243.415 730.599 261.128C736.806 278.842 740 297.827 740 317L725.667 317C725.667 300.052 722.843 283.27 717.357 267.613C711.871 251.955 703.83 237.728 693.693 225.744C683.556 213.76 671.521 204.254 658.276 197.768C645.032 191.283 630.836 187.944 616.5 187.944C602.164 187.944 587.968 191.283 574.724 197.768C561.479 204.254 549.444 213.76 539.307 225.744C529.17 237.728 521.129 251.955 515.643 267.613C510.157 283.27 507.333 300.052 507.333 317L493 317Z"/>
</mask>
<path d="M493 317C493 297.827 496.194 278.842 502.401 261.128C508.607 243.415 517.704 227.32 529.172 213.762C540.64 200.205 554.255 189.451 569.239 182.114C584.222 174.776 600.282 171 616.5 171C632.718 171 648.778 174.776 663.761 182.114C678.745 189.451 692.36 200.205 703.828 213.762C715.296 227.32 724.393 243.415 730.599 261.128C736.806 278.842 740 297.827 740 317L725.667 317C725.667 300.052 722.843 283.27 717.357 267.613C711.871 251.955 703.83 237.728 693.693 225.744C683.556 213.76 671.521 204.254 658.276 197.768C645.032 191.283 630.836 187.944 616.5 187.944C602.164 187.944 587.968 191.283 574.724 197.768C561.479 204.254 549.444 213.76 539.307 225.744C529.17 237.728 521.129 251.955 515.643 267.613C510.157 283.27 507.333 300.052 507.333 317L493 317Z" stroke="white" stroke-width="20" mask="url(#path-4-inside-3)"/>
</svg>
