<svg width="106" height="235" viewBox="0 0 106 235" fill="none" xmlns="http://www.w3.org/2000/svg">
<path d="M5.58844 135.166V126.288L10.9966 123.932H96.8061L100.952 126.288L102.575 135.166L96.8061 143.319L106 185.898L96.8061 217.787L76.9762 234.456H33.8912L10.9966 217.787L0 185.898L10.9966 143.319L5.58844 135.166Z" fill="#F5C038"/>
<path d="M5.4082 135.709V126.831L10.8164 124.476H96.6259L100.772 126.831L102.395 135.709L96.6259 143.863L105.82 186.442L96.6259 218.331L76.796 235L87.2517 213.076L91.0375 191.334V168.866L79.6803 154.19L69.7653 146.762L50.8368 143.863H10.8164L5.4082 135.709Z" fill="#D9A00D"/>
<path d="M43.8062 42.5792L50.2959 34.4258L83.2857 48.3772L89.7755 72.1128L83.2857 90.7751L76.7959 113.242L63.6361 123.57H50.2959L67.0613 107.988L71.5681 90.7751L76.7959 72.1128L71.5681 53.994L43.8062 42.5792Z" fill="#3E6C0F"/>
<ellipse cx="53.1803" cy="14.1326" rx="6.85033" ry="14.1326" fill="url(#paint0_linear)"/>
<ellipse cx="50.6565" cy="64.865" rx="6.85034" ry="14.1326" fill="url(#paint1_linear)"/>
<ellipse rx="6.85449" ry="14.1241" transform="matrix(0.938072 -0.346441 0.343363 0.939203 66.2627 65.2853)" fill="url(#paint2_linear)"/>
<ellipse rx="6.85828" ry="14.1164" transform="matrix(0.877762 0.479098 -0.475365 0.879789 66.9922 18.6042)" fill="url(#paint3_linear)"/>
<ellipse rx="6.88106" ry="14.0696" transform="matrix(0.340433 0.940269 -0.939156 0.343492 77.75 32.6827)" fill="url(#paint4_linear)"/>
<ellipse rx="6.88106" ry="14.0696" transform="matrix(0.340433 0.940269 -0.939156 0.343491 25.471 49.7145)" fill="url(#paint5_linear)"/>
<ellipse rx="6.87113" ry="14.09" transform="matrix(0.632768 0.774341 -0.771188 0.636607 34.503 61.0365)" fill="url(#paint6_linear)"/>
<ellipse rx="6.88274" ry="14.0661" transform="matrix(-0.260793 0.965395 -0.964724 -0.263265 78.6403 49.4839)" fill="white"/>
<ellipse rx="6.88274" ry="14.0661" transform="matrix(-0.260793 0.965395 -0.964724 -0.263265 78.6403 49.4839)" fill="url(#paint7_linear)"/>
<ellipse rx="6.88274" ry="14.0661" transform="matrix(-0.260793 0.965395 -0.964724 -0.263265 26.3615 33.5396)" fill="white"/>
<ellipse rx="6.88274" ry="14.0661" transform="matrix(-0.260793 0.965395 -0.964724 -0.263265 26.3615 33.5396)" fill="url(#paint8_linear)"/>
<ellipse rx="6.86922" ry="14.094" transform="matrix(-0.67482 0.737983 -0.734568 -0.678535 34.2775 19.7058)" fill="white"/>
<ellipse rx="6.86922" ry="14.094" transform="matrix(-0.67482 0.737983 -0.734568 -0.678535 34.2775 19.7058)" fill="url(#paint9_linear)"/>
<ellipse cx="53" cy="41.1297" rx="16.7653" ry="16.8504" fill="white"/>
<ellipse cx="53" cy="41.1297" rx="16.7653" ry="16.8504" fill="url(#paint10_diamond)"/>
<defs>
<linearGradient id="paint0_linear" x1="32.8096" y1="4.16731" x2="71.9524" y2="14.0382" gradientUnits="userSpaceOnUse">
<stop stop-color="#FFD600"/>
<stop offset="1" stop-opacity="0"/>
</linearGradient>
<linearGradient id="paint1_linear" x1="30.2857" y1="54.8997" x2="69.4286" y2="64.7706" gradientUnits="userSpaceOnUse">
<stop stop-color="#FFD600"/>
<stop offset="1" stop-opacity="0"/>
</linearGradient>
<linearGradient id="paint2_linear" x1="-13.5286" y1="4.16481" x2="25.6323" y2="14.0522" gradientUnits="userSpaceOnUse">
<stop stop-color="#FFD600"/>
<stop offset="1" stop-opacity="0"/>
</linearGradient>
<linearGradient id="paint3_linear" x1="-13.5361" y1="4.16252" x2="25.6413" y2="14.0649" gradientUnits="userSpaceOnUse">
<stop stop-color="#FFD600"/>
<stop offset="1" stop-opacity="0"/>
</linearGradient>
<linearGradient id="paint4_linear" x1="-13.581" y1="4.14872" x2="25.695" y2="14.1422" gradientUnits="userSpaceOnUse">
<stop stop-color="#FFD600"/>
<stop offset="1" stop-opacity="0"/>
</linearGradient>
<linearGradient id="paint5_linear" x1="-13.581" y1="4.14873" x2="25.695" y2="14.1422" gradientUnits="userSpaceOnUse">
<stop stop-color="#FFD600"/>
<stop offset="1" stop-opacity="0"/>
</linearGradient>
<linearGradient id="paint6_linear" x1="-13.5614" y1="4.15475" x2="25.6717" y2="14.1084" gradientUnits="userSpaceOnUse">
<stop stop-color="#FFD600"/>
<stop offset="1" stop-opacity="0"/>
</linearGradient>
<linearGradient id="paint7_linear" x1="-13.5844" y1="4.14771" x2="25.6989" y2="14.1479" gradientUnits="userSpaceOnUse">
<stop stop-color="#FFD600"/>
<stop offset="1" stop-opacity="0"/>
</linearGradient>
<linearGradient id="paint8_linear" x1="-13.5843" y1="4.14771" x2="25.6989" y2="14.1479" gradientUnits="userSpaceOnUse">
<stop stop-color="#FFD600"/>
<stop offset="1" stop-opacity="0"/>
</linearGradient>
<linearGradient id="paint9_linear" x1="-13.5577" y1="4.15591" x2="25.6672" y2="14.1019" gradientUnits="userSpaceOnUse">
<stop stop-color="#FFD600"/>
<stop offset="1" stop-opacity="0"/>
</linearGradient>
<radialGradient id="paint10_diamond" cx="0" cy="0" r="1" gradientUnits="userSpaceOnUse" gradientTransform="translate(118.98 20.112) rotate(161.069) scale(128.451 128.966)">
<stop offset="0.458207" stop-color="#FFB800"/>
<stop offset="1" stop-color="#00B2FF" stop-opacity="0"/>
</radialGradient>
</defs>
</svg>
